<svg xmlns="http://www.w3.org/2000/svg" width="38" height="38" viewBox="0 0 38 38">
  <g id="Сгруппировать_144" data-name="Сгруппировать 144" transform="translate(-157 -168)">
    <g id="Сгруппировать_132" data-name="Сгруппировать 132" transform="translate(-1408.271 140.109)">
      <g id="Сгруппировать_3" data-name="Сгруппировать 3">
        <path id="Контур_22" data-name="Контур 22" d="M1578.293,53.247h-.443a.583.583,0,0,1-.574-.664c.3-2.2,1.763-3.5,3.765-4.475a4.152,4.152,0,0,1-1.252-3.984,4.078,4.078,0,0,1,2.445-2.89,3.855,3.855,0,0,1,3.973.483c2.11,1.663,2.225,4.112.334,6.39,1.954.946,3.443,2.246,3.748,4.461a.58.58,0,0,1-.575.659h-.438a.579.579,0,0,1-.571-.484,5.01,5.01,0,0,0-.108-.516,4.026,4.026,0,0,0-3.448-2.962,6.662,6.662,0,0,0-3.463.187,3.921,3.921,0,0,0-2.825,3.3v0A.573.573,0,0,1,1578.293,53.247Zm3.092-8.814a2.486,2.486,0,0,0,3.124,3.026,2.3,2.3,0,0,0,1.682-1.756,2.48,2.48,0,0,0-3.083-3.031A2.313,2.313,0,0,0,1581.385,44.433Z" fill="#fff"/>
      </g>
    </g>
    <g id="Прямоугольник_62" data-name="Прямоугольник 62" transform="translate(157 168)" fill="none" stroke="#fff" stroke-width="2">
      <rect width="38" height="38" rx="19" stroke="none"/>
      <rect x="1" y="1" width="36" height="36" rx="18" fill="none"/>
    </g>
  </g>
</svg>
