<svg xmlns="http://www.w3.org/2000/svg" width="45.287" height="45.298" viewBox="0 0 45.287 45.298">
  <path id="Контур_105" data-name="Контур 105" d="M1827.383,1253.974v-17.466h5.924l.881-6.846h-6.7a2.624,2.624,0,0,1-.073-.413c0-1.446-.021-2.894.021-4.34.055-1.966.822-2.788,2.8-2.906,1.35-.08,2.71-.015,4.111-.015v-6.141c-.631-.053-1.269-.158-1.905-.154a34.773,34.773,0,0,0-5.586.151c-3.852.661-6.3,3.7-6.469,7.729-.076,1.755-.032,3.517-.042,5.275,0,.24,0,.48,0,.8h-5.862v6.83h5.811V1254c-.239.014-.455.034-.672.034q-9.016,0-18.03,0c-2.751,0-4.721-1.437-5.3-3.865a6.827,6.827,0,0,1-.152-1.588q-.012-17.194,0-34.39c0-2.748,1.437-4.715,3.873-5.293a6.36,6.36,0,0,1,1.455-.137q17.3-.01,34.59,0a5,5,0,0,1,5.357,5.336q.019,17.3,0,34.59a4.964,4.964,0,0,1-5.091,5.333c-2.869.073-5.742.017-8.615.015A2.467,2.467,0,0,1,1827.383,1253.974Z" transform="translate(-1796.13 -1208.75)" fill="#fff"/>
</svg>
