<svg xmlns="http://www.w3.org/2000/svg" width="30" height="28.46" viewBox="0 0 30 28.46">
  <path id="GP" d="M18.119,23.61l.223.447c.13.242.26.466.408.69a5.258,5.258,0,0,1-1.187,1.361,5.936,5.936,0,0,1-2.189,1.174,8.113,8.113,0,0,1-2.523.373,8,8,0,0,1-3.08-.541A6.58,6.58,0,0,1,7.637,25.7,7.492,7.492,0,0,1,6.3,23.833,7.855,7.855,0,0,1,5.615,21.9a6.891,6.891,0,0,1-.186-1.622V19.6a11.2,11.2,0,0,1,.056-1.528,8.7,8.7,0,0,1,.371-1.752A5.47,5.47,0,0,1,6.784,14.7,4.712,4.712,0,0,1,8.528,13.49a7.622,7.622,0,0,1,2.82-.466h1.8v-.019H13.2a8.924,8.924,0,0,1,2.542.373,6.91,6.91,0,0,1,2.189,1.174,5.734,5.734,0,0,1,1.54,2.05,6.961,6.961,0,0,1,.557,2.516,8.948,8.948,0,0,0-1.54-1.976,7.367,7.367,0,0,0-2.338-1.566,6.586,6.586,0,0,0-2.672-.54,6.017,6.017,0,0,0-2.746.745,5.345,5.345,0,0,0-1.744,1.379,2.641,2.641,0,0,0-.575,1.491,2.547,2.547,0,0,0,.3,1.379,2.45,2.45,0,0,0,.853.932,2.174,2.174,0,0,0,1.039.317,1.838,1.838,0,0,0,.965-.2,2.807,2.807,0,0,0,.983-.857,2.29,2.29,0,0,0,.371-1.118,2.256,2.256,0,0,0-.26-1.174,2.089,2.089,0,0,0-.3-.41c-.13-.131-.278-.261-.408-.391a1.116,1.116,0,0,1-.2-.224c-.056-.075-.093-.168-.148-.261-.019-.056,0-.112.074-.2a1.224,1.224,0,0,1,.352-.261,1.259,1.259,0,0,1,1.095.037,4.486,4.486,0,0,1,1.5,1.267A14.893,14.893,0,0,1,16.468,20.4ZM12.758,12.092a2.359,2.359,0,0,1-.352-.019l-.649-.056a5.371,5.371,0,0,1-1.095-.186,3.413,3.413,0,0,1-1.206-.578A3.082,3.082,0,0,1,8.49,9.967a5.994,5.994,0,0,1-.408-2.311V4.9a4.9,4.9,0,0,1,.427-2.125A3.051,3.051,0,0,1,9.548,1.561,3.734,3.734,0,0,1,10.9,1a5.929,5.929,0,0,1,1.354-.13,5.676,5.676,0,0,1,2.115.317,2.158,2.158,0,0,1,1,.69,1.28,1.28,0,0,1,.278.708.748.748,0,0,1-.186.41,3.6,3.6,0,0,1-.371.391c-.185.168-.371.373-.557.559a3.936,3.936,0,0,0-.482.652,1.417,1.417,0,0,0-.2.708,2.936,2.936,0,0,0,.241,1.156,2.435,2.435,0,0,0,.816.988,2.466,2.466,0,0,0,1.447.41,2.365,2.365,0,0,0,1.262-.335,2.323,2.323,0,0,0,.872-.969,3.455,3.455,0,0,0,.334-1.491,4.1,4.1,0,0,0-.39-1.7,5.063,5.063,0,0,0-1.225-1.6A6.388,6.388,0,0,0,15.04.536,10.565,10.565,0,0,0,11.756.07,11.3,11.3,0,0,0,9.585.294,10.035,10.035,0,0,0,7.377.946,7.976,7.976,0,0,0,5.448,2.12,5.653,5.653,0,0,0,4.056,3.835a5.36,5.36,0,0,0-.519,2.311,5.807,5.807,0,0,0,.8,3.113,5.712,5.712,0,0,0,2.226,1.957,13.907,13.907,0,0,0,3.321,1.1v.2a16.535,16.535,0,0,0-2.6.391,13.293,13.293,0,0,0-2.616.82,9.443,9.443,0,0,0-2.282,1.379A6.628,6.628,0,0,0,.772,17.2a6.542,6.542,0,0,0-.612,2.87,7.736,7.736,0,0,0,.557,2.963,6.476,6.476,0,0,0,1.484,2.2A8.29,8.29,0,0,0,4.372,26.8a13.6,13.6,0,0,0,2.6.988,20.059,20.059,0,0,0,2.764.522c.946.093,1.837.149,2.69.149a10.741,10.741,0,0,0,4.416-.913,7.356,7.356,0,0,0,2.022-1.379,3.586,3.586,0,0,0,.5-.559,7.954,7.954,0,0,0,.761.82,7.726,7.726,0,0,0,2.319,1.566,6.5,6.5,0,0,0,2.653.54,6.09,6.09,0,0,0,2.764-.745,5.61,5.61,0,0,0,1.707-1.323,2.826,2.826,0,0,0,.575-1.267,2.967,2.967,0,0,0-.056-1.025,4.756,4.756,0,0,0-.223-.578,2.525,2.525,0,0,0-.891-.969,2.1,2.1,0,0,0-1.057-.317,1.982,1.982,0,0,0-.909.186,4.07,4.07,0,0,0-.649.447,2.752,2.752,0,0,0-.538.671,2.007,2.007,0,0,0-.2.913,2.578,2.578,0,0,0,.334,1.156,3.063,3.063,0,0,0,.26.41,1.855,1.855,0,0,0,.39.373,1.259,1.259,0,0,1,.223.224,1.354,1.354,0,0,1,.167.242.206.206,0,0,1-.074.2.954.954,0,0,1-.353.242,1.291,1.291,0,0,1-1.076.093,2.829,2.829,0,0,1-1.02-.69,7.409,7.409,0,0,1-.928-1.155c-.278-.429-.557-.857-.8-1.286-.223-.429-.427-.82-.594-1.156l-.928-1.789v-.019c.13-2.367-.334-5.274-2-6.989a6.2,6.2,0,0,0-2.022-1.379,9.812,9.812,0,0,0-2.245-.708,11.168,11.168,0,0,0-2.152-.2Z" transform="translate(-0.16 -0.07)" fill="#fff"/>
</svg>
