<svg id="Сгруппировать_20" data-name="Сгруппировать 20" xmlns="http://www.w3.org/2000/svg" width="45.328" height="45.298" viewBox="0 0 45.328 45.298">
  <path id="Контур_106" data-name="Контур 106" d="M1851.944,1231.33c0-3.515-.111-7.033.025-10.543a12.4,12.4,0,0,1,12.4-12q10.177-.083,20.355,0a12.3,12.3,0,0,1,12.381,11.929q.266,10.87-.025,21.751c-.151,5.975-5.463,11.184-11.423,11.478-2.776.137-5.56.082-8.341.08-4.626-.005-9.258.087-13.878-.091a12.31,12.31,0,0,1-11.433-11.4c-.157-3.731-.029-7.473-.029-11.21Zm22.655-12.493a12.559,12.559,0,1,0,12.51,12.591A12.536,12.536,0,0,0,1874.6,1218.838Zm17.554-2.55a2.519,2.519,0,1,0-2.479,2.543A2.548,2.548,0,0,0,1892.153,1216.288Z" transform="translate(-1851.901 -1208.75)" fill="#fff"/>
  <path id="Контур_107" data-name="Контур 107" d="M1870.52,1219.747a7.532,7.532,0,1,1-7.625,7.454A7.529,7.529,0,0,1,1870.52,1219.747Z" transform="translate(-1847.781 -1204.63)" fill="#fff"/>
</svg>
