<svg xmlns="http://www.w3.org/2000/svg" width="182.118" height="93.872" viewBox="0 0 182.118 93.872">
  <g id="Сгруппировать_271" data-name="Сгруппировать 271" transform="translate(-42 7)">
    <g id="Сгруппировать_198" data-name="Сгруппировать 198" transform="translate(42 -7)">
      <g id="Сгруппировать_196" data-name="Сгруппировать 196" transform="translate(86.819 46.47)">
        <path id="Контур_142" data-name="Контур 142" d="M171.754,247a4.838,4.838,0,0,1-3.469-1.321,4.858,4.858,0,0,1,0-6.8,4.84,4.84,0,0,1,3.469-1.321,4.111,4.111,0,0,1,3.819,2.231l-1.67.821a2.516,2.516,0,0,0-.883-.951,2.283,2.283,0,0,0-1.266-.376,2.711,2.711,0,0,0-2.052.848,3.263,3.263,0,0,0,0,4.3,2.711,2.711,0,0,0,2.052.848,2.318,2.318,0,0,0,1.266-.37,2.437,2.437,0,0,0,.883-.958l1.67.807A4.163,4.163,0,0,1,171.754,247Z" transform="translate(-166.786 -235.44)" fill="#fff"/>
        <path id="Контур_143" data-name="Контур 143" d="M189.64,246.925h-6.46V237.8h6.46v1.711h-4.517v1.93h4.421v1.711h-4.421v2.067h4.517Z" transform="translate(-172.682 -235.525)" fill="#fff"/>
        <path id="Контур_144" data-name="Контур 144" d="M198.49,246.925h-1.943V237.8h4.27a2.981,2.981,0,0,1,2.251.843,3.1,3.1,0,0,1-.006,4.194,2.974,2.974,0,0,1-2.244.848H198.49Zm2.067-4.955a1.393,1.393,0,0,0,.965-.335,1.257,1.257,0,0,0,0-1.794,1.4,1.4,0,0,0-.965-.335H198.49v2.464Z" transform="translate(-177.522 -235.525)" fill="#fff"/>
        <path id="Контур_145" data-name="Контур 145" d="M217.252,246.925h-6.46V237.8h6.46v1.711h-4.517v1.93h4.42v1.711h-4.42v2.067h4.517Z" transform="translate(-182.68 -235.525)" fill="#fff"/>
        <path id="Контур_146" data-name="Контур 146" d="M224.158,237.8h6.665v1.711H226.1v1.615h2.367a2.94,2.94,0,0,1,2.217.835,3.046,3.046,0,0,1,0,4.133,2.938,2.938,0,0,1-2.217.835h-4.311Zm4.051,5.037H226.1v2.381h2.107a1.344,1.344,0,0,0,.938-.329,1.213,1.213,0,0,0,0-1.731A1.362,1.362,0,0,0,228.209,242.833Z" transform="translate(-187.519 -235.525)" fill="#fff"/>
        <path id="Контур_147" data-name="Контур 147" d="M240.348,246.925H238.4V237.8h4.27a2.984,2.984,0,0,1,2.251.843,3.1,3.1,0,0,1-.006,4.194,2.976,2.976,0,0,1-2.245.848h-2.327Zm2.066-4.955a1.4,1.4,0,0,0,.965-.335,1.257,1.257,0,0,0,0-1.794,1.4,1.4,0,0,0-.965-.335h-2.066v2.464Z" transform="translate(-192.677 -235.525)" fill="#fff"/>
        <path id="Контур_148" data-name="Контур 148" d="M254.258,246.925h-2.231l2.053-3.476a2.558,2.558,0,0,1-1.417-.89,2.752,2.752,0,0,1-.581-1.82,2.861,2.861,0,0,1,.828-2.122,3.04,3.04,0,0,1,2.238-.821h4.27v9.129h-1.943v-3.244h-1.41Zm1.177-4.955h2.039v-2.464h-2.039a1.446,1.446,0,0,0-.986.335,1.241,1.241,0,0,0,0,1.794A1.44,1.44,0,0,0,255.435,241.971Z" transform="translate(-197.61 -235.525)" fill="#fff"/>
        <path id="Контур_149" data-name="Контур 149" d="M275.514,246.925h-1.957v-3.833h-4.311v3.833H267.3V237.8h1.944v3.586h4.311V237.8h1.957Z" transform="translate(-203.141 -235.525)" fill="#fff"/>
        <path id="Контур_150" data-name="Контур 150" d="M283.844,237.8h1.944v3.244h2.327a2.979,2.979,0,0,1,2.244.848,3.1,3.1,0,0,1,.006,4.2,2.987,2.987,0,0,1-2.251.841h-4.271Zm4.011,4.955h-2.067v2.463h2.067a1.4,1.4,0,0,0,.965-.335,1.256,1.256,0,0,0,0-1.793A1.4,1.4,0,0,0,287.855,242.751Zm6.049,4.174h-1.957V237.8H293.9Z" transform="translate(-209.13 -235.525)" fill="#fff"/>
        <path id="Контур_151" data-name="Контур 151" d="M305.179,245.636H303.3v-9.129h1.944v5.9l4.229-5.9h2v9.129H309.53v-6.118Zm4.612-10.757a2.826,2.826,0,0,1-2.4,1.2,2.885,2.885,0,0,1-2.409-1.2l.767-.643a2,2,0,0,0,3.271,0Z" transform="translate(-216.176 -234.236)" fill="#fff"/>
        <path id="Контур_152" data-name="Контур 152" d="M166.724,272.835v-1.724a1.287,1.287,0,0,0,1.137-.6,5.871,5.871,0,0,0,.6-2.306l.534-4.668h6.488v9.129h-1.958v-7.418h-2.778l-.356,3.093a10.864,10.864,0,0,1-.485,2.292,3.392,3.392,0,0,1-.822,1.376,2.829,2.829,0,0,1-1.047.644A4.3,4.3,0,0,1,166.724,272.835Z" transform="translate(-166.724 -244.847)" fill="#fff"/>
        <path id="Контур_153" data-name="Контур 153" d="M184.811,272.835a3.8,3.8,0,0,1-1.183-.185,2.4,2.4,0,0,1-.883-.472l.739-1.56a1.875,1.875,0,0,0,1.178.493,1.254,1.254,0,0,0,.773-.212,2.193,2.193,0,0,0,.554-.732l-3.367-6.624h2.2l2.258,4.845,2.272-4.845h2.2L187.8,270.92a3.761,3.761,0,0,1-1.157,1.423A3.079,3.079,0,0,1,184.811,272.835Z" transform="translate(-172.48 -244.847)" fill="#fff"/>
        <path id="Контур_154" data-name="Контур 154" d="M200.413,263.542V266.1a1.47,1.47,0,0,0,1.669,1.656,4.641,4.641,0,0,0,1.739-.3v-3.914h1.943v9.129h-1.943v-3.5a6.821,6.821,0,0,1-1.971.3,3.345,3.345,0,0,1-2.545-.9,3.446,3.446,0,0,1-.848-2.471v-2.559Z" transform="translate(-178.213 -244.847)" fill="#fff"/>
        <path id="Контур_155" data-name="Контур 155" d="M221.814,272.671h-1.957v-3.833h-4.311v3.833H213.6v-9.129h1.944v3.586h4.311v-3.586h1.957Z" transform="translate(-183.697 -244.847)" fill="#fff"/>
        <path id="Контур_156" data-name="Контур 156" d="M232.018,272.671h-1.875v-9.129h1.944v5.9l4.229-5.9h2v9.129H236.37v-6.118Z" transform="translate(-189.686 -244.847)" fill="#fff"/>
        <path id="Контур_157" data-name="Контур 157" d="M254.457,272.671h-2.4l-2.765-3.654-.711.848v2.806h-1.944v-9.129h1.944v4.078l3.23-4.078h2.4l-3.627,4.284Z" transform="translate(-195.66 -244.847)" fill="#fff"/>
      </g>
      <g id="Сгруппировать_197" data-name="Сгруппировать 197">
        <path id="Контур_158" data-name="Контур 158" d="M96.172,236.83l-.523-.721c.085-.214.172-.425.256-.642.609-1.582,1.164-3.181,1.683-4.79a100.3,100.3,0,0,0,2.569-9.807,103.818,103.818,0,0,0,2.2-20.125,98.509,98.509,0,0,0-.367-10.107c-.255-3.359-.755-6.69-1.328-10a110.946,110.946,0,0,0-5.43-19.254A110.819,110.819,0,0,1,99.77,180.8c.42,3.3.765,6.606.866,9.926q.182,4.466-.038,8.925l-.036.559C64.5,201.13,43.6,208.357,43.6,208.357l-.027-10.665L30.628,216.62,50.085,218.2l2.467,4.4-13.211-.646c3.91,14.447,15.5,33.3,15.5,33.3l1.63-20.15,9.634-1.491,16.266,4.36,4.726,4.5c10.058,4.961,22.052,11.4,22.052,11.4Zm4.187-33.44a101.542,101.542,0,0,1-2.836,16.77,96.573,96.573,0,0,1-2.908,9.341c-.344.917-.933,2.362-1.347,3.366L68.391,216.72l-.621-2.792,32.606-10.82ZM83.792,235.557l-17.877-4.605-12.234,1.03L53.1,245.5s-6.4-12.442-8.74-20.227l12.839.113-4.7-9.614-17.8-1.224,6.92-11.589-.514,7.989c37.853-9.259,58.216-9.228,58.216-9.228L63.641,211.7l2.117,8.234,3.364.486,22.277,14.6,9.442,11.765-12.015-6.18Z" transform="translate(-30.628 -161.39)" fill="#fff"/>
        <path id="Контур_159" data-name="Контур 159" d="M60.248,221.408l-.387-1.629.027-2.251s1.15-1.479,3.367.292l-.015.542-.552.04-1.161-.46-.173,1.034s.448,3.963,5.443,3.429l.444,1.111S61.822,226.886,60.248,221.408Z" transform="translate(-41.212 -181.507)" fill="#fff"/>
      </g>
    </g>
  </g>
</svg>
