<svg xmlns="http://www.w3.org/2000/svg" width="38" height="38" viewBox="0 0 38 38">
  <g id="userpic" transform="translate(-0.141 -0.682)">
    <path id="Контур_224" data-name="Контур 224" d="M13.141,26.042H12.7a.6.6,0,0,1-.58-.59.22.22,0,0,1,0-.08c.3-2.2,1.76-3.5,3.76-4.47a4.17,4.17,0,0,1-1.25-4,4.09,4.09,0,0,1,2.44-2.89,3.87,3.87,0,0,1,4,.49c2.11,1.66,2.22,4.11.33,6.39,2,.94,3.44,2.24,3.75,4.46a.58.58,0,0,1-.5.65h-.51a.59.59,0,0,1-.58-.49,4.577,4.577,0,0,0-.1-.51,4,4,0,0,0-3.45-3,6.659,6.659,0,0,0-3.46.19,3.91,3.91,0,0,0-2.83,3.3h0a.58.58,0,0,1-.58.55Zm3.09-8.82a2.49,2.49,0,0,0,1.76,3.05,2.551,2.551,0,0,0,1.37,0,2.3,2.3,0,0,0,1.68-1.76,2.48,2.48,0,0,0-1.74-3,2.439,2.439,0,0,0-1.34,0,2.32,2.32,0,0,0-1.71,1.71Z" fill="#fff"/>
    <path id="Контур_225" data-name="Контур 225" d="M19.141,1.682A18,18,0,1,1,6.413,6.954,18,18,0,0,1,19.141,1.682Z" fill="none" stroke="#fff" stroke-width="2"/>
  </g>
</svg>
