<svg xmlns="http://www.w3.org/2000/svg" width="274" height="141.232" viewBox="0 0 274 141.232">
  <g id="Сгруппировать_199" data-name="Сгруппировать 199" transform="translate(-42 7)">
    <g id="Сгруппировать_198" data-name="Сгруппировать 198" transform="translate(42 -7)">
      <g id="Сгруппировать_196" data-name="Сгруппировать 196" transform="translate(130.621 69.916)">
        <path id="Контур_142" data-name="Контур 142" d="M174.206,251.769a7.279,7.279,0,0,1-5.219-1.988,7.309,7.309,0,0,1,0-10.235,7.282,7.282,0,0,1,5.219-1.987,6.186,6.186,0,0,1,5.746,3.357l-2.513,1.235a3.786,3.786,0,0,0-1.328-1.431,3.434,3.434,0,0,0-1.905-.566,4.079,4.079,0,0,0-3.088,1.277,4.91,4.91,0,0,0,0,6.467,4.079,4.079,0,0,0,3.088,1.276,3.488,3.488,0,0,0,1.905-.557,3.667,3.667,0,0,0,1.328-1.442l2.513,1.214A6.264,6.264,0,0,1,174.206,251.769Z" transform="translate(-166.731 -234.37)" fill="#9ba8aa"/>
        <path id="Контур_143" data-name="Контур 143" d="M192.9,251.531h-9.72V237.8h9.72v2.574h-6.8v2.9h6.651v2.574H186.1v3.11h6.8Z" transform="translate(-167.386 -234.379)" fill="#9ba8aa"/>
        <path id="Контур_144" data-name="Контур 144" d="M199.47,251.531h-2.923V237.8h6.425a4.486,4.486,0,0,1,3.386,1.268,4.658,4.658,0,0,1-.01,6.311,4.475,4.475,0,0,1-3.376,1.276h-3.5Zm3.11-7.455a2.1,2.1,0,0,0,1.451-.5,1.891,1.891,0,0,0,0-2.7,2.1,2.1,0,0,0-1.451-.5h-3.11v3.707Z" transform="translate(-167.924 -234.379)" fill="#9ba8aa"/>
        <path id="Контур_145" data-name="Контур 145" d="M220.512,251.531h-9.72V237.8h9.72v2.574h-6.8v2.9h6.65v2.574h-6.65v3.11h6.8Z" transform="translate(-168.497 -234.379)" fill="#9ba8aa"/>
        <path id="Контур_146" data-name="Контур 146" d="M224.158,237.8h10.028v2.574h-7.1v2.43h3.562a4.424,4.424,0,0,1,3.335,1.256,4.583,4.583,0,0,1,0,6.218,4.42,4.42,0,0,1-3.335,1.256h-6.486Zm6.095,7.578h-3.17v3.583h3.17a2.022,2.022,0,0,0,1.411-.494,1.825,1.825,0,0,0,0-2.6A2.048,2.048,0,0,0,230.253,245.374Z" transform="translate(-169.034 -234.379)" fill="#9ba8aa"/>
        <path id="Контур_147" data-name="Контур 147" d="M241.328,251.531H238.4V237.8h6.425a4.489,4.489,0,0,1,3.387,1.268,4.661,4.661,0,0,1-.01,6.311,4.477,4.477,0,0,1-3.377,1.276h-3.5Zm3.109-7.455a2.1,2.1,0,0,0,1.452-.5,1.891,1.891,0,0,0,0-2.7,2.109,2.109,0,0,0-1.452-.5h-3.109v3.707Z" transform="translate(-169.607 -234.379)" fill="#9ba8aa"/>
        <path id="Контур_148" data-name="Контур 148" d="M255.383,251.531h-3.356l3.089-5.23a3.848,3.848,0,0,1-2.132-1.339,4.14,4.14,0,0,1-.874-2.738,4.3,4.3,0,0,1,1.246-3.193,4.574,4.574,0,0,1,3.367-1.235h6.424v13.735h-2.923v-4.88H258.1Zm1.771-7.455h3.068V240.37h-3.068a2.176,2.176,0,0,0-1.483.5,1.867,1.867,0,0,0,0,2.7A2.167,2.167,0,0,0,257.154,244.077Z" transform="translate(-170.155 -234.379)" fill="#9ba8aa"/>
        <path id="Контур_149" data-name="Контур 149" d="M279.657,251.531h-2.945v-5.766h-6.486v5.766H267.3V237.8h2.924v5.395h6.486V237.8h2.945Z" transform="translate(-170.77 -234.379)" fill="#9ba8aa"/>
        <path id="Контур_150" data-name="Контур 150" d="M283.844,237.8h2.924v4.88h3.5a4.482,4.482,0,0,1,3.376,1.276,4.663,4.663,0,0,1,.01,6.312,4.493,4.493,0,0,1-3.386,1.266h-6.426Zm6.034,7.456h-3.11v3.706h3.11a2.1,2.1,0,0,0,1.451-.5,1.89,1.89,0,0,0,0-2.7A2.1,2.1,0,0,0,289.878,245.252Zm9.1,6.28h-2.945V237.8h2.945Z" transform="translate(-171.435 -234.379)" fill="#9ba8aa"/>
        <path id="Контур_151" data-name="Контур 151" d="M306.125,251.388H303.3V237.653h2.924v8.875l6.362-8.875H315.6v13.735h-2.924v-9.2Zm6.939-16.185a4.252,4.252,0,0,1-3.6,1.811,4.34,4.34,0,0,1-3.624-1.811l1.154-.967a3.009,3.009,0,0,0,4.921,0Z" transform="translate(-172.218 -234.236)" fill="#9ba8aa"/>
        <path id="Контур_152" data-name="Контур 152" d="M166.724,277.524V274.93a1.936,1.936,0,0,0,1.71-.9,8.832,8.832,0,0,0,.905-3.47l.8-7.023H179.9v13.735h-2.946V266.116h-4.18l-.536,4.654a16.344,16.344,0,0,1-.73,3.448,5.1,5.1,0,0,1-1.236,2.07,4.257,4.257,0,0,1-1.575.968A6.464,6.464,0,0,1,166.724,277.524Z" transform="translate(-166.724 -235.415)" fill="#9ba8aa"/>
        <path id="Контур_153" data-name="Контур 153" d="M185.916,277.524a5.72,5.72,0,0,1-1.78-.278,3.605,3.605,0,0,1-1.328-.71l1.111-2.348a2.82,2.82,0,0,0,1.772.742,1.886,1.886,0,0,0,1.163-.32,3.3,3.3,0,0,0,.834-1.1l-5.066-9.966h3.315l3.4,7.289,3.418-7.289h3.316l-5.663,11.1a5.66,5.66,0,0,1-1.74,2.14A4.633,4.633,0,0,1,185.916,277.524Z" transform="translate(-167.364 -235.415)" fill="#9ba8aa"/>
        <path id="Контур_154" data-name="Контур 154" d="M201.4,263.542v3.851a2.211,2.211,0,0,0,2.512,2.492,6.983,6.983,0,0,0,2.616-.453v-5.889h2.923v13.735h-2.923v-5.271a10.264,10.264,0,0,1-2.966.452,5.033,5.033,0,0,1-3.829-1.348,5.185,5.185,0,0,1-1.277-3.717v-3.851Z" transform="translate(-168 -235.415)" fill="#9ba8aa"/>
        <path id="Контур_155" data-name="Контур 155" d="M225.957,277.277h-2.945v-5.766h-6.486v5.766H213.6V263.542h2.924v5.4h6.486v-5.4h2.945Z" transform="translate(-168.61 -235.415)" fill="#9ba8aa"/>
        <path id="Контур_156" data-name="Контур 156" d="M232.965,277.277h-2.822V263.542h2.924v8.875l6.362-8.875h3.007v13.735h-2.924v-9.205Z" transform="translate(-169.275 -235.415)" fill="#9ba8aa"/>
        <path id="Контур_157" data-name="Контур 157" d="M258.4,277.277h-3.6l-4.16-5.5-1.07,1.276v4.221h-2.924V263.542h2.924v6.136l4.859-6.136h3.6l-5.457,6.445Z" transform="translate(-169.939 -235.415)" fill="#9ba8aa"/>
      </g>
      <g id="Сгруппировать_197" data-name="Сгруппировать 197">
        <path id="Контур_158" data-name="Контур 158" d="M129.24,274.891l-.787-1.085c.128-.322.259-.639.386-.966.916-2.38,1.751-4.785,2.533-7.206a150.9,150.9,0,0,0,3.865-14.755,156.2,156.2,0,0,0,3.311-30.279,148.211,148.211,0,0,0-.553-15.206c-.383-5.054-1.136-10.065-2-15.038a166.922,166.922,0,0,0-8.17-28.968,166.731,166.731,0,0,1,6.827,29.2c.632,4.963,1.151,9.939,1.3,14.934q.274,6.719-.058,13.427l-.054.842c-54.256,1.382-85.7,12.255-85.7,12.255L50.1,216.007,30.628,244.484l29.273,2.38,3.711,6.624-19.877-.971c5.883,21.735,23.327,50.1,23.327,50.1l2.452-30.315,14.494-2.244,24.472,6.56,7.11,6.771c15.132,7.464,33.177,17.153,33.177,17.153Zm6.3-50.311a152.77,152.77,0,0,1-4.266,25.232,145.294,145.294,0,0,1-4.376,14.053c-.517,1.379-1.4,3.553-2.027,5.064L87.444,244.635l-.935-4.2,49.057-16.279Zm-24.924,48.4-26.9-6.929L65.312,267.6l-.876,20.335s-9.627-18.719-13.15-30.432l19.316.17-7.075-14.464-26.783-1.841,10.411-17.436-.773,12.02c56.951-13.93,87.587-13.884,87.587-13.884L80.3,237.08l3.185,12.389,5.061.731,33.516,21.969,14.206,17.7-18.077-9.3Z" transform="translate(-30.628 -161.39)" fill="#9ba8aa"/>
        <path id="Контур_159" data-name="Контур 159" d="M60.443,223.658l-.582-2.451.041-3.386s1.73-2.226,5.066.44l-.023.815-.831.06-1.747-.692L62.107,220s.675,5.963,8.189,5.16l.668,1.671S62.811,231.9,60.443,223.658Z" transform="translate(-31.804 -163.625)" fill="#9ba8aa"/>
      </g>
    </g>
  </g>
</svg>
