<svg xmlns="http://www.w3.org/2000/svg" width="148.333" height="76.457" viewBox="0 0 148.333 76.457">
  <g id="Сгруппировать_258" data-name="Сгруппировать 258" transform="translate(-42 7)">
    <g id="Сгруппировать_198" data-name="Сгруппировать 198" transform="translate(42 -7)">
      <g id="Сгруппировать_196" data-name="Сгруппировать 196" transform="translate(70.713 37.85)">
        <path id="Контур_142" data-name="Контур 142" d="M170.853,245.252a3.941,3.941,0,0,1-2.826-1.076,3.957,3.957,0,0,1,0-5.541,3.942,3.942,0,0,1,2.826-1.076,3.349,3.349,0,0,1,3.111,1.818l-1.36.669a2.05,2.05,0,0,0-.719-.775,1.859,1.859,0,0,0-1.031-.307,2.208,2.208,0,0,0-1.672.691,2.658,2.658,0,0,0,0,3.5,2.208,2.208,0,0,0,1.672.691,1.888,1.888,0,0,0,1.031-.3,1.985,1.985,0,0,0,.719-.78l1.36.657A3.391,3.391,0,0,1,170.853,245.252Z" transform="translate(-166.807 -235.833)" fill="#9ba8aa"/>
        <path id="Контур_143" data-name="Контур 143" d="M188.442,245.232H183.18V237.8h5.262v1.394h-3.679v1.572h3.6v1.394h-3.6v1.683h3.679Z" transform="translate(-174.63 -235.946)" fill="#9ba8aa"/>
        <path id="Контур_144" data-name="Контур 144" d="M198.13,245.232h-1.583V237.8h3.478a2.428,2.428,0,0,1,1.833.686,2.522,2.522,0,0,1-.005,3.416,2.423,2.423,0,0,1-1.828.691h-1.9Zm1.683-4.036a1.134,1.134,0,0,0,.786-.273,1.024,1.024,0,0,0,0-1.461,1.139,1.139,0,0,0-.786-.273H198.13V241.2Z" transform="translate(-181.051 -235.946)" fill="#9ba8aa"/>
        <path id="Контур_145" data-name="Контур 145" d="M216.054,245.232h-5.262V237.8h5.262v1.394h-3.679v1.572h3.6v1.394h-3.6v1.683h3.679Z" transform="translate(-187.895 -235.946)" fill="#9ba8aa"/>
        <path id="Контур_146" data-name="Контур 146" d="M224.158,237.8h5.429v1.394h-3.845v1.316h1.928a2.4,2.4,0,0,1,1.806.68,2.481,2.481,0,0,1,0,3.366,2.393,2.393,0,0,1-1.806.68h-3.511Zm3.3,4.1h-1.716v1.94h1.716a1.1,1.1,0,0,0,.764-.268.988.988,0,0,0,0-1.41A1.109,1.109,0,0,0,227.457,241.9Z" transform="translate(-194.316 -235.946)" fill="#9ba8aa"/>
        <path id="Контур_147" data-name="Контур 147" d="M239.987,245.232H238.4V237.8h3.478a2.43,2.43,0,0,1,1.834.686,2.523,2.523,0,0,1-.005,3.416,2.424,2.424,0,0,1-1.828.691h-1.895Zm1.683-4.036a1.137,1.137,0,0,0,.786-.273,1.024,1.024,0,0,0,0-1.461,1.142,1.142,0,0,0-.786-.273h-1.683V241.2Z" transform="translate(-201.16 -235.946)" fill="#9ba8aa"/>
        <path id="Контур_148" data-name="Контур 148" d="M253.844,245.232h-1.817L253.7,242.4a2.083,2.083,0,0,1-1.154-.725,2.241,2.241,0,0,1-.473-1.482,2.33,2.33,0,0,1,.674-1.729,2.476,2.476,0,0,1,1.823-.669h3.478v7.436h-1.583V242.59h-1.148Zm.959-4.036h1.661V239.19H254.8a1.178,1.178,0,0,0-.8.273,1.011,1.011,0,0,0,0,1.461A1.173,1.173,0,0,0,254.8,241.2Z" transform="translate(-207.705 -235.946)" fill="#9ba8aa"/>
        <path id="Контур_149" data-name="Контур 149" d="M273.991,245.232H272.4V242.11h-3.511v3.122H267.3V237.8h1.583v2.921H272.4V237.8h1.594Z" transform="translate(-215.043 -235.946)" fill="#9ba8aa"/>
        <path id="Контур_150" data-name="Контур 150" d="M283.844,237.8h1.583v2.642h1.9a2.427,2.427,0,0,1,1.828.691,2.525,2.525,0,0,1,.005,3.417,2.433,2.433,0,0,1-1.833.685h-3.479Zm3.267,4.036h-1.683v2.006h1.683a1.137,1.137,0,0,0,.786-.273,1.023,1.023,0,0,0,0-1.461A1.137,1.137,0,0,0,287.111,241.832Zm4.927,3.4h-1.594V237.8h1.594Z" transform="translate(-222.99 -235.946)" fill="#9ba8aa"/>
        <path id="Контур_151" data-name="Контур 151" d="M304.831,243.521H303.3v-7.436h1.583v4.8l3.444-4.8h1.628v7.436h-1.583v-4.983Zm3.757-8.762a2.3,2.3,0,0,1-1.951.98,2.35,2.35,0,0,1-1.962-.98l.625-.524a1.629,1.629,0,0,0,2.664,0Z" transform="translate(-232.339 -234.236)" fill="#9ba8aa"/>
        <path id="Контур_152" data-name="Контур 152" d="M166.724,271.111v-1.4a1.048,1.048,0,0,0,.926-.485,4.781,4.781,0,0,0,.49-1.878l.435-3.8h5.284v7.436h-1.595v-6.042H170l-.29,2.519a8.849,8.849,0,0,1-.4,1.867,2.763,2.763,0,0,1-.669,1.121,2.3,2.3,0,0,1-.853.524A3.5,3.5,0,0,1,166.724,271.111Z" transform="translate(-166.724 -248.315)" fill="#9ba8aa"/>
        <path id="Контур_153" data-name="Контур 153" d="M184.405,271.111a3.1,3.1,0,0,1-.964-.151,1.951,1.951,0,0,1-.719-.385l.6-1.271a1.527,1.527,0,0,0,.959.4,1.021,1.021,0,0,0,.63-.173,1.786,1.786,0,0,0,.452-.6l-2.742-5.4h1.795l1.839,3.946,1.85-3.946h1.8l-3.066,6.009a3.064,3.064,0,0,1-.942,1.159A2.508,2.508,0,0,1,184.405,271.111Z" transform="translate(-174.362 -248.315)" fill="#9ba8aa"/>
        <path id="Контур_154" data-name="Контур 154" d="M200.05,263.542v2.085a1.2,1.2,0,0,0,1.36,1.349,3.78,3.78,0,0,0,1.416-.245v-3.188h1.583v7.436h-1.583v-2.854a5.557,5.557,0,0,1-1.606.245,2.725,2.725,0,0,1-2.073-.73,2.807,2.807,0,0,1-.691-2.012v-2.085Z" transform="translate(-181.969 -248.315)" fill="#9ba8aa"/>
        <path id="Контур_155" data-name="Контур 155" d="M220.291,270.978H218.7v-3.122h-3.511v3.122H213.6v-7.436h1.583v2.921H218.7v-2.921h1.594Z" transform="translate(-189.245 -248.315)" fill="#9ba8aa"/>
        <path id="Контур_156" data-name="Контур 156" d="M231.671,270.978h-1.528v-7.436h1.583v4.8l3.444-4.8H236.8v7.436h-1.583v-4.983Z" transform="translate(-197.191 -248.315)" fill="#9ba8aa"/>
        <path id="Контур_157" data-name="Контур 157" d="M253.007,270.978h-1.951L248.8,268l-.579.691v2.285h-1.583v-7.436h1.583v3.322l2.631-3.322h1.951l-2.954,3.489Z" transform="translate(-205.118 -248.315)" fill="#9ba8aa"/>
      </g>
      <g id="Сгруппировать_197" data-name="Сгруппировать 197">
        <path id="Контур_158" data-name="Контур 158" d="M84.013,222.835l-.426-.587c.069-.174.14-.346.209-.523.5-1.289.948-2.591,1.371-3.9a81.688,81.688,0,0,0,2.092-7.988,84.559,84.559,0,0,0,1.793-16.392,80.236,80.236,0,0,0-.3-8.232c-.207-2.736-.615-5.449-1.082-8.141a90.365,90.365,0,0,0-4.423-15.682,90.261,90.261,0,0,1,3.7,15.81c.342,2.687.623,5.381.706,8.085q.148,3.637-.031,7.269l-.029.456c-29.372.748-46.4,6.635-46.4,6.635l-.022-8.687L30.628,206.374l15.847,1.289,2.009,3.586-10.761-.526c3.185,11.767,12.628,27.124,12.628,27.124l1.328-16.412,7.847-1.215,13.248,3.551,3.849,3.666c8.192,4.041,17.961,9.286,17.961,9.286Zm3.41-27.237a82.7,82.7,0,0,1-2.31,13.659,78.658,78.658,0,0,1-2.369,7.608c-.28.747-.76,1.923-1.1,2.741L61.386,206.456l-.506-2.274,26.558-8.813ZM73.93,221.8l-14.56-3.751-9.965.839-.474,11.008s-5.211-10.134-7.119-16.474l10.457.092-3.83-7.83-14.5-1,5.636-9.439-.418,6.507c30.831-7.541,47.416-7.516,47.416-7.516l-29.056,8.128,1.724,6.707,2.74.4,18.144,11.893,7.69,9.583-9.786-5.033Z" transform="translate(-30.628 -161.39)" fill="#9ba8aa"/>
        <path id="Контур_159" data-name="Контур 159" d="M60.176,220.581l-.315-1.327.022-1.833s.937-1.2,2.742.238l-.012.441-.45.032-.946-.375-.141.842s.365,3.228,4.433,2.793l.362.9S61.458,225.043,60.176,220.581Z" transform="translate(-44.672 -188.082)" fill="#9ba8aa"/>
      </g>
    </g>
  </g>
</svg>
