<svg xmlns="http://www.w3.org/2000/svg" width="209.059" height="107.758" viewBox="0 0 209.059 107.758">
  <g id="Сгруппировать_199" data-name="Сгруппировать 199" transform="translate(-42 7)">
    <g id="Сгруппировать_198" data-name="Сгруппировать 198" transform="translate(42 -7)">
      <g id="Сгруппировать_196" data-name="Сгруппировать 196" transform="translate(99.663 53.345)">
        <path id="Контур_142" data-name="Контур 142" d="M172.473,248.4a5.554,5.554,0,0,1-3.982-1.517,5.577,5.577,0,0,1,0-7.809,5.556,5.556,0,0,1,3.982-1.516,4.72,4.72,0,0,1,4.384,2.562l-1.917.942a2.889,2.889,0,0,0-1.014-1.092,2.621,2.621,0,0,0-1.454-.432,3.112,3.112,0,0,0-2.356.974,3.746,3.746,0,0,0,0,4.934,3.112,3.112,0,0,0,2.356.974,2.661,2.661,0,0,0,1.454-.425,2.8,2.8,0,0,0,1.014-1.1l1.917.926A4.779,4.779,0,0,1,172.473,248.4Z" transform="translate(-166.77 -235.126)" fill="#9ba8aa"/>
        <path id="Контур_143" data-name="Контур 143" d="M190.6,248.276H183.18V237.8H190.6v1.964h-5.185v2.215h5.075v1.964h-5.075v2.373H190.6Z" transform="translate(-171.129 -235.189)" fill="#9ba8aa"/>
        <path id="Контур_144" data-name="Контур 144" d="M198.778,248.276h-2.231V237.8h4.9a3.423,3.423,0,0,1,2.584.967,3.554,3.554,0,0,1-.007,4.815,3.415,3.415,0,0,1-2.576.974h-2.671Zm2.373-5.688a1.6,1.6,0,0,0,1.107-.384,1.443,1.443,0,0,0,0-2.059,1.606,1.606,0,0,0-1.107-.384h-2.373v2.828Z" transform="translate(-174.708 -235.189)" fill="#9ba8aa"/>
        <path id="Контур_145" data-name="Контур 145" d="M218.208,248.276h-7.416V237.8h7.416v1.964h-5.185v2.215H218.1v1.964h-5.074v2.373h5.185Z" transform="translate(-178.521 -235.189)" fill="#9ba8aa"/>
        <path id="Контур_146" data-name="Контур 146" d="M224.158,237.8h7.651v1.964h-5.42v1.854h2.718a3.375,3.375,0,0,1,2.545.959,3.5,3.5,0,0,1,0,4.745,3.372,3.372,0,0,1-2.545.959h-4.949Zm4.65,5.782h-2.419v2.734h2.419a1.543,1.543,0,0,0,1.076-.377,1.392,1.392,0,0,0,0-1.987A1.563,1.563,0,0,0,228.808,243.578Z" transform="translate(-182.099 -235.189)" fill="#9ba8aa"/>
        <path id="Контур_147" data-name="Контур 147" d="M240.635,248.276H238.4V237.8h4.9a3.425,3.425,0,0,1,2.584.967,3.556,3.556,0,0,1-.007,4.815,3.416,3.416,0,0,1-2.577.974h-2.671Zm2.372-5.688a1.6,1.6,0,0,0,1.108-.384,1.443,1.443,0,0,0,0-2.059,1.609,1.609,0,0,0-1.108-.384h-2.372v2.828Z" transform="translate(-185.913 -235.189)" fill="#9ba8aa"/>
        <path id="Контур_148" data-name="Контур 148" d="M254.588,248.276h-2.561l2.357-3.99a2.936,2.936,0,0,1-1.626-1.022,3.159,3.159,0,0,1-.667-2.089,3.284,3.284,0,0,1,.951-2.436,3.49,3.49,0,0,1,2.569-.942h4.9v10.48H258.28v-3.724h-1.618Zm1.351-5.688h2.341V239.76h-2.341a1.66,1.66,0,0,0-1.131.384,1.424,1.424,0,0,0,0,2.059A1.653,1.653,0,0,0,255.939,242.588Z" transform="translate(-189.56 -235.189)" fill="#9ba8aa"/>
        <path id="Контур_149" data-name="Контур 149" d="M276.729,248.276h-2.247v-4.4h-4.949v4.4H267.3V237.8h2.231v4.116h4.949V237.8h2.247Z" transform="translate(-193.649 -235.189)" fill="#9ba8aa"/>
        <path id="Контур_150" data-name="Контур 150" d="M283.844,237.8h2.231v3.724h2.671a3.42,3.42,0,0,1,2.576.974,3.558,3.558,0,0,1,.007,4.816,3.429,3.429,0,0,1-2.584.966h-4.9Zm4.6,5.688h-2.373v2.827h2.373a1.6,1.6,0,0,0,1.107-.384,1.442,1.442,0,0,0,0-2.058A1.6,1.6,0,0,0,288.448,243.485Zm6.944,4.791h-2.247V237.8h2.247Z" transform="translate(-198.077 -235.189)" fill="#9ba8aa"/>
        <path id="Контур_151" data-name="Контур 151" d="M305.456,247.323H303.3v-10.48h2.231v6.772l4.854-6.772h2.294v10.48h-2.231V240.3Zm5.295-12.349a3.245,3.245,0,0,1-2.75,1.382,3.312,3.312,0,0,1-2.765-1.382l.88-.738a2.3,2.3,0,0,0,3.754,0Z" transform="translate(-203.287 -234.236)" fill="#9ba8aa"/>
        <path id="Контур_152" data-name="Контур 152" d="M166.724,274.21v-1.979a1.477,1.477,0,0,0,1.3-.683,6.739,6.739,0,0,0,.691-2.647l.613-5.358h7.447v10.48h-2.247v-8.516h-3.189l-.409,3.551a12.468,12.468,0,0,1-.557,2.631,3.894,3.894,0,0,1-.943,1.58,3.248,3.248,0,0,1-1.2.739A4.932,4.932,0,0,1,166.724,274.21Z" transform="translate(-166.724 -242.081)" fill="#9ba8aa"/>
        <path id="Контур_153" data-name="Контур 153" d="M185.135,274.21a4.365,4.365,0,0,1-1.358-.212,2.751,2.751,0,0,1-1.013-.542l.848-1.791a2.152,2.152,0,0,0,1.352.566,1.439,1.439,0,0,0,.888-.244,2.518,2.518,0,0,0,.636-.841l-3.865-7.6h2.529l2.592,5.562,2.608-5.562h2.53l-4.321,8.469a4.318,4.318,0,0,1-1.328,1.633A3.535,3.535,0,0,1,185.135,274.21Z" transform="translate(-170.98 -242.081)" fill="#9ba8aa"/>
        <path id="Контур_154" data-name="Контур 154" d="M200.7,263.542v2.938a1.687,1.687,0,0,0,1.916,1.9,5.328,5.328,0,0,0,2-.346v-4.493h2.231v10.48h-2.231V270a7.832,7.832,0,0,1-2.263.345,3.84,3.84,0,0,1-2.922-1.029,3.956,3.956,0,0,1-.974-2.836v-2.938Z" transform="translate(-175.219 -242.081)" fill="#9ba8aa"/>
        <path id="Контур_155" data-name="Контур 155" d="M223.029,274.022h-2.247v-4.4h-4.949v4.4H213.6v-10.48h2.231v4.117h4.949v-4.117h2.247Z" transform="translate(-179.273 -242.081)" fill="#9ba8aa"/>
        <path id="Контур_156" data-name="Контур 156" d="M232.3,274.022h-2.153v-10.48h2.231v6.772l4.854-6.772h2.294v10.48h-2.231V267Z" transform="translate(-183.701 -242.081)" fill="#9ba8aa"/>
        <path id="Контур_157" data-name="Контур 157" d="M255.613,274.022h-2.75l-3.174-4.195-.817.974v3.221h-2.231v-10.48h2.231v4.682l3.708-4.682h2.75l-4.164,4.917Z" transform="translate(-188.118 -242.081)" fill="#9ba8aa"/>
      </g>
      <g id="Сгруппировать_197" data-name="Сгруппировать 197">
        <path id="Контур_158" data-name="Контур 158" d="M105.868,247.99l-.6-.828c.1-.245.2-.488.294-.737.7-1.816,1.336-3.651,1.933-5.5a115.132,115.132,0,0,0,2.949-11.258,119.177,119.177,0,0,0,2.526-23.1,113.083,113.083,0,0,0-.422-11.6c-.292-3.856-.867-7.68-1.525-11.474a127.359,127.359,0,0,0-6.233-22.1A127.215,127.215,0,0,1,110,183.673c.482,3.787.878,7.584.994,11.395q.209,5.126-.044,10.245l-.041.642c-41.4,1.054-65.39,9.351-65.39,9.351l-.031-12.243L30.628,224.79l22.335,1.816,2.832,5.054-15.166-.741c4.489,16.584,17.8,38.229,17.8,38.229l1.871-23.13,11.059-1.712,18.672,5.005,5.425,5.166c11.545,5.7,25.314,13.088,25.314,13.088Zm4.806-38.387a116.562,116.562,0,0,1-3.255,19.251,110.858,110.858,0,0,1-3.339,10.722c-.395,1.052-1.071,2.711-1.547,3.864L73.978,224.905l-.713-3.2,37.43-12.421ZM91.657,246.529l-20.521-5.286-14.044,1.182-.669,15.515s-7.345-14.283-10.033-23.219l14.738.13-5.4-11.036-20.436-1.4,7.943-13.3-.59,9.171c43.453-10.629,66.828-10.593,66.828-10.593L68.525,219.141l2.43,9.452,3.861.558,25.573,16.762,10.839,13.506-13.793-7.094Z" transform="translate(-30.628 -161.39)" fill="#9ba8aa"/>
        <path id="Контур_159" data-name="Контур 159" d="M60.3,222.068l-.444-1.87.031-2.584s1.32-1.7,3.865.335l-.018.622-.634.045-1.333-.528-.2,1.187s.515,4.55,6.248,3.937l.51,1.275S62.112,228.356,60.3,222.068Z" transform="translate(-38.454 -176.263)" fill="#9ba8aa"/>
      </g>
    </g>
  </g>
</svg>
