<svg xmlns="http://www.w3.org/2000/svg" width="38" height="38" viewBox="0 0 38 38">
  <g id="Сгруппировать_2" data-name="Сгруппировать 2" transform="translate(-604.29 125.434)">
    <path id="Контур_20" data-name="Контур 20" d="M636.726-119.869a19,19,0,0,0-26.871,0,19,19,0,0,0,0,26.87,19,19,0,0,0,26.871,0A19,19,0,0,0,636.726-119.869Zm-6.5,22.077L627.02-101a6.548,6.548,0,0,1-3.729,1.158,6.6,6.6,0,0,1-6.594-6.593,6.552,6.552,0,0,1,1.931-4.662,6.554,6.554,0,0,1,4.662-1.931,6.6,6.6,0,0,1,6.593,6.593,6.548,6.548,0,0,1-1.158,3.729l3.206,3.206Z" transform="translate(0 0)"/>
    <path id="Контур_21" data-name="Контур 21" d="M626.925-107.008a4.184,4.184,0,0,0-2.976,1.232,4.183,4.183,0,0,0-1.233,2.977,4.214,4.214,0,0,0,4.209,4.209,4.183,4.183,0,0,0,2.977-1.233,4.179,4.179,0,0,0,1.232-2.976A4.214,4.214,0,0,0,626.925-107.008Z" transform="translate(-3.635 -3.635)"/>
  </g>
</svg>
